<svg width="98" height="98" viewBox="0 0 98 98" fill="none" xmlns="http://www.w3.org/2000/svg">
<rect width="98" height="98" rx="24" fill="#E0FBD2"/>
<path d="M14.0927 59.5341C14.2346 61.3793 18.883 63.3782 21.1895 64.1471C21.4261 63.7331 21.0476 63.6503 21.8992 60.9535C22.9637 57.5825 25.0927 56.6954 26.1573 55.8083C27.2218 54.9212 30.4153 54.2115 33.4315 54.7438C36.4476 55.2761 36.4476 55.2761 38.9315 58.2922L38.9315 58.2922C41.5645 61.4895 41.6519 63.9105 41.4154 65.5664H56.3186C56.5552 64.2062 56.7476 61.0329 57.3831 59.889C58.2702 58.2922 59.1573 57.7599 60.5767 56.3406C61.9961 54.9212 66.4349 54.1867 67.8509 54.389C70.3348 54.7438 69.8025 54.6994 73.1735 57.2277C76.0122 59.3567 76.2488 61.9589 76.5445 63.9696C76.7219 64.0288 77.7864 63.8987 80.6251 62.9051C83.4638 61.9116 84.0552 59.4159 83.9961 58.2922V52.6148C83.937 52.2008 83.5348 50.876 82.3993 48.8889C81.2638 46.9018 78.023 46.1685 76.5445 46.0502L68.2057 45.3406C65.9584 41.6739 61.038 33.9147 59.3348 32.2115C57.6315 30.5082 53.539 29.3136 51.5283 29.0179C46.324 28.9588 35.1702 29.0534 33.6089 29.1954C32.0476 29.3373 28.7003 32.3297 27.0444 33.9857C25.211 37.5932 22.0766 45.3405 20.4798 45.1631C18.7077 44.9662 15.6895 46.9373 14.8024 47.8244C13.9153 48.7115 13.9153 57.2277 14.0927 59.5341Z" fill="#00880C"/>
<ellipse cx="31.3026" cy="64.6793" rx="6.38711" ry="6.38711" fill="#00880C"/>
<ellipse cx="66.4313" cy="64.6793" rx="6.38711" ry="6.38711" fill="#00880C"/>
</svg>
