<svg width="59" height="60" viewBox="0 0 59 60" fill="none" xmlns="http://www.w3.org/2000/svg">
<path fill-rule="evenodd" clip-rule="evenodd" d="M29.7012 0C25.9946 0 23.8325 2.52471 23.2147 3.78706C18.2726 15.7794 8.2032 42.0364 7.46189 51.1253C6.72058 60.2143 14.5661 60.593 18.5815 59.6462L29.7012 53.9656L40.8208 59.6462C44.8362 60.593 52.6818 60.2143 51.9404 51.1253C51.1991 42.0364 41.1297 15.7794 36.1876 3.78706C35.5699 2.52471 33.4077 0 29.7012 0Z" fill="#87027B"/>
<path d="M50.6032 33.9832L45.7842 20.0328C45.5846 19.4549 45.9447 18.8348 46.5525 18.7692C50.2424 18.3708 56.3798 18.9054 58.3779 23.669C60.3999 28.4895 55.4259 32.6316 51.9523 34.5301C51.4323 34.8143 50.7966 34.5433 50.6032 33.9832Z" fill="#87027B"/>
<path d="M8.24255 33.9832L13.0615 20.0328C13.2611 19.4549 12.901 18.8348 12.2932 18.7692C8.6033 18.3708 2.46593 18.9054 0.467761 23.669C-1.55422 28.4895 3.41982 32.6316 6.89343 34.5301C7.41345 34.8143 8.04905 34.5433 8.24255 33.9832Z" fill="#87027B"/>
</svg>
