<svg width="98" height="98" viewBox="0 0 98 98" fill="none" xmlns="http://www.w3.org/2000/svg">
<rect width="98" height="98" rx="24" fill="#FFE1DF"/>
<path d="M62.341 72.6576L61.4366 61.0811C61.4366 60.2128 60.3513 58.3075 59.8087 58.006C59.0851 57.6443 57.2763 56.4866 55.8292 54.7501C54.0204 52.5795 52.9351 50.0472 52.3925 46.7913C51.8498 43.5354 53.4777 37.928 53.6586 36.8427C53.8395 35.7574 56.9145 29.7883 59.0851 26.8941C60.8216 24.5788 63.5469 24 64.6925 24C65.5969 24.0603 67.5505 23.8553 69.5764 24.7235C72.1087 25.8088 73.5558 28.3412 75.7264 31.778C77.4629 34.5274 78.6205 40.8221 78.9823 43.5354C79.0426 44.6207 78.9823 47.2978 78.2587 50.0472C77.5352 52.7966 76.269 54.3281 75.7264 54.7501C75.0028 55.2928 73.8814 56.161 72.2896 57.4634C70.6978 58.7658 69.8175 60.4781 69.9381 60.9002L69.3955 72.4767C69.3352 73.562 68.0569 74.8282 67.044 74.8282H64.8734C63.4263 74.8282 62.6425 73.5017 62.341 72.6576Z" fill="#EE2737"/>
<path d="M29.6721 71.9453C29.5274 71.5111 29.25 65.132 29.1294 61.9967C28.658 60.4645 27.7365 59.1097 26.4848 58.1083L24.7883 56.7511C24.2456 56.329 22.7624 54.9061 21.1706 52.5908C19.5788 50.2755 19.1206 45.7775 19 43.7275L19.9742 31.3417C20.1571 29.0161 21.3973 26.1889 23.703 26.5436C25.5841 26.833 26.778 28.5333 26.5971 29.2568L25.8735 41.5569C25.753 41.8584 25.7409 43.5466 27.6824 43.5466C29.4912 43.5466 29.7324 42.5819 29.6721 41.5569L29.9384 29.9736C29.9997 27.3076 31.0012 23.7167 33.6515 24.0112C33.8396 24.0321 34.0174 24.086 34.1846 24.1654C36.1122 25.0803 35.9508 27.8093 35.9287 29.9429C35.88 34.6591 36.0193 40.8821 36.3648 41.9187C36.483 42.2732 36.7067 42.6269 36.9818 42.9564C38.183 44.3947 39.4856 43.6587 40.5251 42.0995C41.3069 40.9269 40.6808 34.3868 40.1522 30.3228C40.0462 29.5074 40.1658 28.6787 40.5103 27.9322C40.8712 27.1504 41.483 26.4729 42.3304 26.3203C43.1246 26.1772 44.0809 26.2009 44.8663 26.7245C46.1686 27.5927 46.4942 29.498 46.4942 30.3421L47.3987 39.9289C47.3987 42.5819 47.1454 48.6113 46.1325 51.5055C45.1195 54.3996 43.4192 55.8467 42.6957 56.3893C41.7913 57.0525 40.2434 57.9228 39.078 58.9217C37.8119 60.007 37.028 61.032 37.0883 61.9967C37.0883 65.0114 37.2123 71.7799 36.003 73.3923C34.3751 75.5629 32.5662 74.8394 32.2045 74.8394C30.2066 74.8394 29.853 72.4879 29.6721 71.9453Z" fill="#EE2737"/>
</svg>
