<svg width="95" height="95" viewBox="0 0 95 95" fill="none" xmlns="http://www.w3.org/2000/svg">
<rect width="95" height="95" rx="24" fill="#FFE1DF"/>
<path d="M60.4325 70.4334L59.5558 59.2113C59.5558 58.3696 58.5037 56.5226 57.9777 56.2304C57.2763 55.8797 55.5228 54.7575 54.1201 53.0742C52.3666 50.97 51.3145 48.5152 50.7885 45.3589C50.2625 42.2027 51.8406 36.767 52.0159 35.7149C52.1913 34.6628 55.1721 28.8764 57.2763 26.0709C58.9596 23.8265 61.6015 23.2654 62.712 23.2654C63.5887 23.3238 65.4825 23.1251 67.4464 23.9667C69.9012 25.0188 71.304 27.4737 73.4081 30.8052C75.0914 33.4705 76.2137 39.5725 76.5643 42.2027C76.6228 43.2548 76.5643 45.8499 75.863 48.5152C75.1616 51.1804 73.9342 52.665 73.4081 53.0742C72.7067 53.6002 71.6196 54.4419 70.0765 55.7044C68.5335 56.9668 67.6802 58.6268 67.797 59.0359L67.271 70.2581C67.2126 71.3101 65.9735 72.5376 64.9915 72.5376H62.8874C61.4846 72.5376 60.7248 71.2517 60.4325 70.4334Z" fill="#EE2737"/>
<path d="M28.7639 69.7429C28.6236 69.322 28.3547 63.1382 28.2378 60.0988C27.7808 58.6136 26.8875 57.3002 25.6741 56.3295L24.0295 55.0138C23.5035 54.6047 22.0657 53.2253 20.5226 50.9808C18.9796 48.7364 18.5354 44.3761 18.4185 42.3889L19.3628 30.3823C19.5401 28.1278 20.7424 25.3872 22.9775 25.731C24.8011 26.0116 25.9583 27.6598 25.783 28.3612L25.0816 40.2847C24.9647 40.577 24.953 42.2135 26.835 42.2135C28.5885 42.2135 28.8223 41.2784 28.7639 40.2847L29.022 29.056C29.0814 26.4717 30.0523 22.9907 32.6215 23.2762C32.7704 23.2927 32.9126 23.3306 33.0481 23.3858C35.0238 24.1915 34.8487 26.9916 34.828 29.1252C34.7837 33.6847 34.9191 39.6379 35.2517 40.6354C35.3662 40.9792 35.5831 41.322 35.8498 41.6414C37.0142 43.0357 38.277 42.3222 39.2846 40.8108C40.0425 39.674 39.4356 33.3341 38.9232 29.3946C38.8203 28.6042 38.9363 27.8008 39.2703 27.0771C39.6201 26.3192 40.2132 25.6625 41.0347 25.5145C41.8045 25.3759 42.7316 25.3988 43.4929 25.9064C44.7554 26.748 45.071 28.595 45.071 29.4133L45.9478 38.7066C45.9478 41.2784 45.7023 47.1232 44.7203 49.9288C43.7384 52.7343 42.0902 54.1371 41.3888 54.6631C40.512 55.306 39.0115 56.1497 37.8819 57.1179C36.6544 58.17 35.8946 59.1636 35.9531 60.0988C35.9531 63.0213 36.0732 69.5826 34.901 71.1456C33.3229 73.2498 31.5694 72.5484 31.2187 72.5484C29.282 72.5484 28.9392 70.2689 28.7639 69.7429Z" fill="#EE2737"/>
</svg>
