<svg width="98" height="98" viewBox="0 0 98 98" fill="none" xmlns="http://www.w3.org/2000/svg">
<rect width="98" height="98" rx="24" fill="#FFE1DF"/>
<path d="M54.7346 28.2338C47.004 28.062 35.7661 28.878 31.1134 29.3074L30.0398 24.1537C29.8966 23.8674 29.3096 22.8653 28.1071 21.1474C26.9046 19.4295 25.1724 19 24.4566 19H20.806C19.6035 19 19.1597 20.4316 19.0881 21.1474C18.8734 22.4358 18.9163 25.1415 20.806 25.6569C22.6957 26.1722 23.3113 26.7306 23.3829 26.9453C24.5281 32.8864 27.0764 46.014 28.1071 50.9959C29.1378 55.9779 32.4019 59.3707 33.905 60.4444C34.8356 61.1602 38.3286 62.7636 44.8567 63.4507C53.0167 64.3097 62.2504 63.0213 66.7599 61.9476C71.2694 60.8739 74.6395 55.7684 74.92 54.6465C75.1347 53.7875 79 34.8906 79 33.1727C79 31.7984 76.8526 29.7369 75.7789 29.3074C71.9852 29.0211 62.4652 28.4055 54.7346 28.2338Z" fill="#EE2737"/>
<rect x="42.6211" y="36.6085" width="4.72423" height="18.4675" rx="2.36212" fill="#FFE1DF"/>
<rect x="56.3644" y="36.6085" width="4.72423" height="18.4675" rx="2.36212" fill="#FFE1DF"/>
<ellipse cx="40.0442" cy="72.6844" rx="5.58319" ry="5.58319" fill="#EE2737"/>
<ellipse cx="61.9476" cy="72.6844" rx="5.58319" ry="5.58319" fill="#EE2737"/>
</svg>
