<svg width="95" height="95" viewBox="0 0 95 95" fill="none" xmlns="http://www.w3.org/2000/svg">
<rect width="95" height="95" rx="24" fill="#FFE1DF"/>
<path d="M53.0591 27.3695C45.5652 27.2029 34.6713 27.9939 30.1611 28.4103L29.1203 23.4143C28.9815 23.1368 28.4125 22.1653 27.2468 20.5C26.081 18.8347 24.4019 18.4184 23.708 18.4184H20.1692C19.0035 18.4184 18.5733 19.8061 18.5039 20.5C18.2957 21.749 18.3373 24.3719 20.1692 24.8715C22.001 25.3711 22.5978 25.9123 22.6672 26.1204C23.7774 31.8797 26.2476 44.6054 27.2468 49.4348C28.246 54.2643 31.4101 57.5533 32.8672 58.5941C33.7693 59.288 37.1554 60.8422 43.4836 61.5084C51.3938 62.341 60.3449 61.092 64.7163 60.0512C69.0878 59.0104 72.3547 54.0612 72.6266 52.9736C72.8348 52.141 76.5817 33.8225 76.5817 32.1572C76.5817 30.825 74.5001 28.8266 73.4592 28.4103C69.7817 28.1327 60.5531 27.536 53.0591 27.3695Z" fill="#EE2737"/>
<rect x="41.3164" y="35.4879" width="4.57961" height="17.9021" rx="2.28981" fill="#FFE1DF"/>
<rect x="54.6392" y="35.4879" width="4.57961" height="17.9021" rx="2.28981" fill="#FFE1DF"/>
<ellipse cx="38.8185" cy="70.4595" rx="5.41227" ry="5.41227" fill="#EE2737"/>
<ellipse cx="60.0514" cy="70.4595" rx="5.41227" ry="5.41227" fill="#EE2737"/>
</svg>
