<svg width="98" height="98" viewBox="0 0 98 98" fill="none" xmlns="http://www.w3.org/2000/svg">
<rect width="98" height="98" rx="24" fill="#E0FBD2"/>
<circle cx="26.5115" cy="66.7342" r="10.4465" fill="#00880C"/>
<circle cx="72.5535" cy="67.8949" r="10.4465" fill="#00880C"/>
<path d="M16.6455 44.6804C17.2207 47.7752 17.9843 46.6787 17.9997 47.0019C17.2259 47.9691 15.8717 49.2846 15.0979 51.4513C14.3241 53.618 18.3866 54.9334 18.5801 54.74C18.7735 54.5466 21.0562 52.612 27.092 52.612C33.1277 52.612 39.4085 58.996 39.8599 60.7371C40.6337 61.5109 40.8272 66.9276 39.8599 70.7966H48.7588H59.0118C58.5604 69.507 57.9285 66.0377 59.0118 62.4781C60.0952 58.9186 65.1378 54.8045 67.5238 53.1924C67.5238 53.1924 72.747 53.1924 74.1012 52.612C75.4554 52.0317 75.9196 52.0704 77.003 51.4513C78.0863 50.8323 77.8413 48.743 77.5833 47.7757L74.1012 39.6506L69.4583 33.6536L63.4613 28.6238C63.4613 28.6238 65.0089 29.7845 65.5892 29.2042C66.1695 28.6238 66.1696 28.0434 66.1696 28.0434C66.1696 28.0434 66.363 25.5286 65.3958 23.7875C64.4285 22.0464 61.5267 19.9184 61.5267 19.9184C61.5267 19.9184 57.6577 18.5642 56.6904 19.1446C55.7231 19.7249 55.3362 21.466 55.3362 21.466L55.7231 24.3678C55.7231 24.3678 52.4344 23.594 51.854 23.7875C51.2737 23.981 50.4998 25.5672 50.4998 26.4958C50.4998 27.4244 51.1447 27.9145 51.854 28.0434L56.6904 28.6238L57.6576 32.106L59.5922 39.6506L60.5595 47.0019L59.0118 55.5138C57.9156 56.997 55.3362 60.1567 55.3362 60.1567C55.3362 60.1567 53.0148 61.124 49.7261 60.7371C47.0951 60.4275 46.0504 57.6418 45.857 56.2876V50.8709C46.8243 50.742 48.9522 50.7549 49.7261 50.2906C50.2126 49.9987 50.852 48.7738 51.2598 47.9045C51.5379 47.3117 51.6883 46.6698 51.7426 46.0172C51.8169 45.1261 51.9231 44.2375 51.9647 43.3443C51.9986 42.6158 51.9957 41.7196 51.854 41.0048C51.4026 40.36 50.6934 40.0375 48.7588 39.2637C46.8242 38.4899 36.3777 38.103 36.3777 38.103C36.3777 38.103 25.9313 38.2964 23.2229 39.2637C21.0563 40.0375 19.1604 40.6179 19.1604 40.6179C19.1604 40.6179 16.0703 41.5856 16.6455 44.6804Z" fill="#00880C"/>
</svg>
