<svg width="98" height="98" viewBox="0 0 98 98" fill="none" xmlns="http://www.w3.org/2000/svg">
<rect width="98" height="98" rx="24" fill="#E0FBD2"/>
<path d="M43.1441 18.2739C46.783 16.2395 51.217 16.2395 54.8559 18.2739L73.1668 28.5112C76.9606 30.6322 79.3109 34.6389 79.3109 38.9853V58.7995C79.3109 63.1459 76.9606 67.1526 73.1668 69.2737L54.8559 79.5109C51.217 81.5453 46.783 81.5453 43.1441 79.5109L24.8332 69.2736C21.0394 67.1526 18.6891 63.1459 18.6891 58.7995V38.9853C18.6891 34.6389 21.0394 30.6322 24.8332 28.5112L43.1441 18.2739Z" fill="#00880C"/>
<path d="M31.2626 34.9707C33.3167 32.1133 50.6217 24.0035 58.8198 20.4829L69.1126 26.2383C61.3512 30.0635 45.2461 38.0118 42.9168 39.2037C40.5874 40.3956 40.2539 42.9144 40.3783 44.0249L40.141 55.3198L34.7903 46.3447L29.1792 49.772C29.2598 45.9332 29.2541 37.7646 31.2626 34.9707Z" fill="#E0FBD2"/>
</svg>
