<svg width="95" height="95" viewBox="0 0 95 95" fill="none" xmlns="http://www.w3.org/2000/svg">
<rect width="95" height="95" rx="24" fill="#F9E0FE"/>
<path fill-rule="evenodd" clip-rule="evenodd" d="M47.7012 18C43.9946 18 41.8325 20.5247 41.2147 21.7871C36.2726 33.7794 26.2032 60.0364 25.4619 69.1253C24.7206 78.2143 32.5661 78.593 36.5815 77.6462L47.7012 71.9656L58.8208 77.6462C62.8362 78.593 70.6818 78.2143 69.9404 69.1253C69.1991 60.0364 59.1297 33.7794 54.1876 21.7871C53.5699 20.5247 51.4077 18 47.7012 18Z" fill="#87027B"/>
<path d="M68.6032 51.9832L63.7842 38.0328C63.5846 37.4549 63.9447 36.8348 64.5525 36.7692C68.2424 36.3708 74.3798 36.9054 76.3779 41.669C78.3999 46.4895 73.4259 50.6316 69.9523 52.5301C69.4323 52.8143 68.7966 52.5433 68.6032 51.9832Z" fill="#87027B"/>
<path d="M26.2425 51.9832L31.0615 38.0328C31.2611 37.4549 30.901 36.8348 30.2932 36.7692C26.6033 36.3708 20.4659 36.9054 18.4678 41.669C16.4458 46.4895 21.4198 50.6316 24.8934 52.5301C25.4135 52.8143 26.0491 52.5433 26.2425 51.9832Z" fill="#87027B"/>
</svg>
