<svg width="40" height="40" viewBox="0 0 40 40" fill="none" xmlns="http://www.w3.org/2000/svg">
<rect width="40" height="40" rx="12" fill="white"/>
<path d="M18.5 30C18.5 30.8284 19.1716 31.5 20 31.5C20.8284 31.5 21.5 30.8284 21.5 30H18.5ZM21.0607 9.93934C20.4749 9.35355 19.5251 9.35355 18.9393 9.93934L9.3934 19.4853C8.80761 20.0711 8.80761 21.0208 9.3934 21.6066C9.97919 22.1924 10.9289 22.1924 11.5147 21.6066L20 13.1213L28.4853 21.6066C29.0711 22.1924 30.0208 22.1924 30.6066 21.6066C31.1924 21.0208 31.1924 20.0711 30.6066 19.4853L21.0607 9.93934ZM21.5 30V11H18.5V30H21.5Z" fill="#0081A0"/>
</svg>
