<svg width="43" height="42" viewBox="0 0 43 42" fill="none" xmlns="http://www.w3.org/2000/svg">
<path d="M19.5431 1.09775C20.7586 0.415895 22.2414 0.415895 23.4569 1.09775L25.5031 2.24553C26.0862 2.57262 26.742 2.74834 27.4105 2.75662L29.7564 2.78568C31.15 2.80294 32.4341 3.54435 33.1459 4.74262L34.344 6.75969C34.6854 7.33451 35.1655 7.81457 35.7403 8.15601L37.7574 9.35411C38.9557 10.0659 39.6971 11.35 39.7143 12.7436L39.7434 15.0895C39.7517 15.758 39.9274 16.4138 40.2545 16.9969L41.4022 19.0431C42.0841 20.2586 42.0841 21.7414 41.4022 22.9569L40.2545 25.0031C39.9274 25.5862 39.7517 26.242 39.7434 26.9105L39.7143 29.2564C39.6971 30.65 38.9557 31.9341 37.7574 32.6459L35.7403 33.844C35.1655 34.1854 34.6854 34.6655 34.344 35.2403L33.1459 37.2574C32.4341 38.4557 31.15 39.1971 29.7564 39.2143L27.4105 39.2434C26.742 39.2517 26.0862 39.4274 25.5031 39.7545L23.4569 40.9022C22.2414 41.5841 20.7586 41.5841 19.5431 40.9022L17.4969 39.7545C16.9138 39.4274 16.258 39.2517 15.5895 39.2434L13.2436 39.2143C11.85 39.1971 10.5659 38.4557 9.85411 37.2574L8.65601 35.2403C8.31457 34.6655 7.83451 34.1854 7.25969 33.844L5.24262 32.6459C4.04435 31.9341 3.30294 30.65 3.28568 29.2564L3.25662 26.9105C3.24834 26.242 3.07262 25.5862 2.74553 25.0031L1.59775 22.9569C0.915895 21.7414 0.915895 20.2586 1.59775 19.0431L2.74553 16.9969C3.07262 16.4138 3.24834 15.758 3.25662 15.0895L3.28568 12.7436C3.30294 11.35 4.04435 10.0659 5.24262 9.35411L7.25969 8.15601C7.83451 7.81457 8.31457 7.33451 8.65601 6.75969L9.85411 4.74262C10.5659 3.54435 11.85 2.80294 13.2436 2.78568L15.5895 2.75662C16.258 2.74834 16.9138 2.57262 17.4969 2.24553L19.5431 1.09775Z" fill="#BDBDBD"/>
<path d="M15.5 27.6024L27.2887 14" stroke="white" stroke-width="3" stroke-linecap="round"/>
<circle cx="15.5" cy="15" r="2" fill="white"/>
<circle cx="27.5" cy="27" r="2" fill="white"/>
</svg>
