<svg width="41" height="40" viewBox="0 0 41 40" fill="none" xmlns="http://www.w3.org/2000/svg">
<rect x="0.5" width="40" height="40" rx="12" fill="white"/>
<g clip-path="url(#clip0_6_7)">
<path d="M27.988 11.2C24.556 11.2 19.9544 13.5536 16.8632 17.6H14.3C12.4488 17.6 11.388 18.9824 10.6568 20.4432L9.67603 22.4H14.3L16.7 24.8L19.1 27.2V31.8224L21.0568 30.8432C22.5176 30.1136 23.9 29.0512 23.9 27.2V24.6368C27.9464 21.5456 30.3 16.9424 30.3 13.512V11.2H27.988ZM23.9 16C24.3244 16 24.7313 16.1685 25.0314 16.4686C25.3315 16.7686 25.5 17.1756 25.5 17.6C25.5 18.0243 25.3315 18.4313 25.0314 18.7313C24.7313 19.0314 24.3244 19.2 23.9 19.2C23.4757 19.2 23.0687 19.0314 22.7687 18.7313C22.4686 18.4313 22.3 18.0243 22.3 17.6C22.3 17.1756 22.4686 16.7686 22.7687 16.4686C23.0687 16.1685 23.4757 16 23.9 16ZM13.5 25.6L12.7 26.4C11.5448 27.5552 11.1 30.4 11.1 30.4C11.1 30.4 13.8168 30.0832 15.1 28.8L15.9 28L13.5 25.6Z" fill="#0081A0"/>
</g>
<defs>
<clipPath id="clip0_6_7">
<rect width="24" height="24" fill="white" transform="translate(9.5 8)"/>
</clipPath>
</defs>
</svg>
